<svg id="visual" viewBox="0 0 1280 300" width="1280" height="300" xmlns="http://www.w3.org/2000/svg" xmlns:xlink="http://www.w3.org/1999/xlink" version="1.1"><rect x="0" y="0" width="1280" height="300" fill="#E5EAEF"></rect><path d="M0 206L30.5 187C61 168 122 130 183 123.8C244 117.7 305 143.3 366 146.8C427 150.3 488 131.7 548.8 128.2C609.7 124.7 670.3 136.3 731.2 149.2C792 162 853 176 914 183.2C975 190.3 1036 190.7 1097 189C1158 187.3 1219 183.7 1249.5 181.8L1280 180L1280 301L1249.5 301C1219 301 1158 301 1097 301C1036 301 975 301 914 301C853 301 792 301 731.2 301C670.3 301 609.7 301 548.8 301C488 301 427 301 366 301C305 301 244 301 183 301C122 301 61 301 30.5 301L0 301Z" fill="#A52A2A" stroke-linecap="round" stroke-linejoin="miter"></path></svg>