<svg id="visual" viewBox="0 0 1280 300" width="1280" height="300" xmlns="http://www.w3.org/2000/svg" xmlns:xlink="http://www.w3.org/1999/xlink" version="1.1"><rect x="0" y="0" width="1280" height="300" fill="#E5EAEF"></rect><path d="M0 121L30.5 134.7C61 148.3 122 175.7 183 176.8C244 178 305 153 366 138.7C427 124.3 488 120.7 548.8 124.2C609.7 127.7 670.3 138.3 731.2 132.5C792 126.7 853 104.3 914 108C975 111.7 1036 141.3 1097 151C1158 160.7 1219 150.3 1249.5 145.2L1280 140L1280 301L1249.5 301C1219 301 1158 301 1097 301C1036 301 975 301 914 301C853 301 792 301 731.2 301C670.3 301 609.7 301 548.8 301C488 301 427 301 366 301C305 301 244 301 183 301C122 301 61 301 30.5 301L0 301Z" fill="#A52A2A" stroke-linecap="round" stroke-linejoin="miter"></path></svg>