<svg id="visual" viewBox="0 0 1280 300" width="1280" height="300" xmlns="http://www.w3.org/2000/svg" xmlns:xlink="http://www.w3.org/1999/xlink" version="1.1"><rect x="0" y="0" width="1280" height="300" fill="#E5EAEF"></rect><path d="M0 202L30.5 188C61 174 122 146 183 140.8C244 135.7 305 153.3 366 156.7C427 160 488 149 548.8 135.8C609.7 122.7 670.3 107.3 731.2 115.7C792 124 853 156 914 170.8C975 185.7 1036 183.3 1097 164.8C1158 146.3 1219 111.7 1249.5 94.3L1280 77L1280 301L1249.5 301C1219 301 1158 301 1097 301C1036 301 975 301 914 301C853 301 792 301 731.2 301C670.3 301 609.7 301 548.8 301C488 301 427 301 366 301C305 301 244 301 183 301C122 301 61 301 30.5 301L0 301Z" fill="#A52A2A" stroke-linecap="round" stroke-linejoin="miter"></path></svg>